<?xml version="1.0" encoding="UTF-8"?>
<svg version="1.1" xmlns="http://www.w3.org/2000/svg" width="1080" height="1080">
<path d="M0 0 C356.4 0 712.8 0 1080 0 C1080 356.4 1080 712.8 1080 1080 C723.6 1080 367.2 1080 0 1080 C0 723.6 0 367.2 0 0 Z " fill="#FEFEFE" transform="translate(0,0)"/>
<path d="M0 0 C2.46610467 -0.00439721 4.9304466 -0.04095264 7.39624023 -0.07861328 C20.63629495 -0.17269748 34.07120319 1.11447322 44.40209961 10.37060547 C49.70567764 16.37706733 50.77530927 21.47728571 50.67163086 29.30029297 C50.11694803 35.6188539 47.41891808 39.66970715 42.96459961 44.05810547 C33.31905535 51.67448959 22.72976059 53.10206232 10.78881836 52.85888672 C9.43977691 52.84952932 8.09071815 52.84242711 6.74165344 52.83744812 C3.23799424 52.81860716 -0.26458269 52.76971549 -3.76782227 52.71392822 C-7.36142343 52.66223131 -10.95520425 52.63982799 -14.54907227 52.61474609 C-21.56578369 52.56156535 -28.58177037 52.47654286 -35.59790039 52.37060547 C-35.10502013 53.63188911 -34.57674966 54.87935274 -34.03540039 56.12060547 C-33.74536133 56.81669922 -33.45532227 57.51279297 -33.15649414 58.22998047 C-30.90380574 61.32389837 -28.0865348 62.96522016 -24.59790039 64.37060547 C-20.9932722 64.97703094 -20.9932722 64.97703094 -17.19384766 64.91650391 C-16.13892876 64.93201042 -16.13892876 64.93201042 -15.06269836 64.9478302 C-12.76299565 64.97707488 -10.46418002 64.97875337 -8.16430664 64.97998047 C-6.56003662 64.99497464 -4.95578197 65.01170438 -3.35154724 65.03009033 C0.85204813 65.07363771 5.05543531 65.09373473 9.25921631 65.10882568 C13.55631761 65.12844251 17.85319556 65.17040726 22.15014648 65.21044922 C30.56740554 65.28561453 38.98457656 65.33598848 47.40209961 65.37060547 C46.66059031 70.4552407 45.79995537 73.392628 42.40209961 77.37060547 C35.87390041 82.0305014 30.7015252 84.47758706 22.67480469 84.53173828 C21.52293167 84.54134583 20.37105865 84.55095337 19.1842804 84.56085205 C17.94260605 84.56510193 16.7009317 84.56935181 15.42163086 84.57373047 C14.13906906 84.57943054 12.85650726 84.58513062 11.53507996 84.59100342 C8.81911831 84.60149573 6.10318608 84.60734925 3.38720703 84.61083984 C-0.07137988 84.6163062 -3.52956947 84.64030122 -6.98803234 84.6688118 C-10.30980262 84.69206925 -13.63152177 84.69389697 -16.95336914 84.69873047 C-18.18492233 84.71107727 -19.41647552 84.72342407 -20.68534851 84.73614502 C-31.04521786 84.70951767 -39.74111377 83.13748528 -47.37915039 75.61669922 C-55.81426928 66.48461076 -58.95971006 56.85057421 -58.84790039 44.49560547 C-58.85563477 43.64869141 -58.86336914 42.80177734 -58.87133789 41.92919922 C-58.83718591 30.77857784 -56.22540347 20.92165938 -48.81274414 12.29248047 C-35.52467604 -0.25887749 -17.17260263 -0.00341505 0 0 Z " fill="#020202" transform="translate(372.597900390625,496.62939453125)"/>
<path d="M0 0 C3.10178984 0.24679349 4.56304176 1.00222163 7.16479492 2.6730957 C8.00469971 3.20402832 8.84460449 3.73496094 9.70996094 4.28198242 C10.59868896 4.85835449 11.48741699 5.43472656 12.40307617 6.02856445 C14.28057724 7.21492554 16.15818341 8.40112032 18.03588867 9.5871582 C20.82215655 11.3650308 23.60632248 13.14616044 26.39038086 14.92749023 C28.8463661 16.49272541 31.31142016 18.04272173 33.77807617 19.59106445 C34.52081787 20.07293213 35.26355957 20.5547998 36.02880859 21.05126953 C36.72079346 21.48463623 37.41277832 21.91800293 38.12573242 22.36450195 C39.02497437 22.93950439 39.02497437 22.93950439 39.94238281 23.52612305 C42.27382387 24.43327607 43.41058508 24.11689589 45.71557617 23.21606445 C48.12546813 21.01882544 48.12546813 21.01882544 50.59057617 18.27856445 C54.77205115 13.9026863 59.1562211 10.15900438 64.09057617 6.65356445 C64.67307129 6.2366333 65.25556641 5.81970215 65.85571289 5.39013672 C74.0271481 -0.28610499 80.91305817 -0.48629665 90.71557617 0.21606445 C93.94914035 0.94923169 96.64766552 1.9243126 99.71557617 3.21606445 C99.13442243 6.73449231 97.91950114 8.37861663 95.39916992 10.8605957 C94.37533203 11.87669922 94.37533203 11.87669922 93.33081055 12.91333008 C92.6121582 13.61135742 91.89350586 14.30938477 91.15307617 15.02856445 C90.46149414 15.71499023 89.76991211 16.40141602 89.05737305 17.10864258 C84.43099388 21.66603566 79.62663883 25.96999225 74.71557617 30.21606445 C73.17620343 31.59142488 71.650342 32.98248045 70.15307617 34.40356445 C69.47116211 35.03649414 68.78924805 35.66942383 68.08666992 36.3215332 C66.53291541 38.0863744 66.53291541 38.0863744 66.68823242 40.1418457 C70.20852964 47.24936594 77.94118231 50.36076525 84.59057617 53.93481445 C90.45482884 57.1927326 96.61826026 61.02143263 99.71557617 67.21606445 C100.39694151 71.37325551 100.48290732 74.8581344 98.37573242 78.5871582 C96.89339842 80.54383909 95.37278415 82.40595931 93.71557617 84.21606445 C90.01656272 82.85084357 86.83154908 81.16638856 83.50463867 79.0559082 C82.51391357 78.43079346 81.52318848 77.80567871 80.50244141 77.16162109 C79.45902588 76.4989624 78.41561035 75.83630371 77.34057617 75.15356445 C75.17815327 73.79625576 73.01539318 72.4394841 70.85229492 71.08325195 C67.24060455 68.81215986 63.63869848 66.52735446 60.04760742 64.22387695 C58.74983447 63.4081295 57.45169396 62.5929663 56.15307617 61.77856445 C55.05866211 61.07860352 53.96424805 60.37864258 52.83666992 59.6574707 C49.14503644 57.95257364 46.73908729 57.74326644 42.71557617 58.21606445 C40.66921431 59.21160239 40.66921431 59.21160239 39.09057617 60.90356445 C38.42670898 61.53262695 37.7628418 62.16168945 37.07885742 62.80981445 C35.24944621 64.67248769 33.43812675 66.5483311 31.63354492 68.43481445 C23.90762045 76.46449711 18.32184998 82.21598544 6.65307617 82.65356445 C1.38745094 82.45829191 -2.61557174 81.68262782 -7.28442383 79.21606445 C-8.25488281 77.40283203 -8.25488281 77.40283203 -8.28442383 75.21606445 C-6.59716797 72.9453125 -6.59716797 72.9453125 -4.06958008 70.4777832 C-3.15499023 69.57479492 -2.24040039 68.67180664 -1.2980957 67.74145508 C-0.31447539 66.79538376 0.6692492 65.84942086 1.65307617 64.90356445 C2.5921582 63.97866211 3.53124023 63.05375977 4.4987793 62.10083008 C8.62022528 58.06542681 12.77600707 54.11353979 17.15698242 50.3605957 C20.05027018 47.87983838 22.46347305 45.31270625 24.71557617 42.21606445 C23.6044043 41.58700195 22.49323242 40.95793945 21.34838867 40.30981445 C-2.68028822 26.55405216 -2.68028822 26.55405216 -6.28442383 17.21606445 C-7.20494442 11.14062854 -6.0919638 6.6065412 -3.28442383 1.21606445 C-2.28442383 0.21606445 -2.28442383 0.21606445 0 0 Z " fill="#020202" transform="translate(439.284423828125,496.783935546875)"/>
<path d="M0 0 C0.66073013 -0.00700928 1.32146027 -0.01401855 2.00221252 -0.02124023 C4.18256924 -0.03881726 6.36162264 -0.02719481 8.54199219 -0.01367188 C10.06410978 -0.0163682 11.58622569 -0.0202518 13.1083374 -0.02526855 C16.29944244 -0.03116423 19.49009945 -0.02260378 22.68115234 -0.00390625 C26.75433972 0.0188065 30.8264683 0.0058106 34.89961624 -0.01819611 C38.04483875 -0.03271899 41.18981452 -0.02801731 44.33504486 -0.01768494 C45.8356209 -0.01503147 47.33621994 -0.01823847 48.8367691 -0.02760315 C65.65211371 -0.10947149 65.65211371 -0.10947149 72.17871094 6.33398438 C72.72205078 7.19830078 72.72205078 7.19830078 73.27636719 8.08007812 C73.65664063 8.65886719 74.03691406 9.23765625 74.42871094 9.83398438 C78.61250702 17.57310932 77.3240645 30.46102326 75.69042969 38.84570312 C73.06783287 45.97378678 68.18538502 52.25064017 61.46386719 55.89257812 C57.24897083 57.76035573 52.86466048 58.72137375 48.33886719 59.51757812 C54.62908497 65.34545882 61.0088373 70.94441007 67.67871094 76.33789062 C71.66677151 79.6056407 75.63267261 82.93034782 79.33886719 86.51757812 C79.33886719 86.84757813 79.33886719 87.17757812 79.33886719 87.51757812 C55.65148423 89.18530216 55.65148423 89.18530216 49.08886719 83.70507812 C47.46463056 82.01427442 45.88222979 80.28251259 44.33886719 78.51757812 C42.33998494 76.59485019 40.27435286 74.74881366 38.21386719 72.89257812 C37.715 72.42819336 37.21613281 71.96380859 36.70214844 71.48535156 C32.95299394 67.99586805 29.02927722 64.86221944 24.88574219 61.85742188 C24.37527344 61.41527344 23.86480469 60.973125 23.33886719 60.51757812 C23.33886719 59.85757813 23.33886719 59.19757812 23.33886719 58.51757812 C19.37886719 58.51757812 15.41886719 58.51757812 11.33886719 58.51757812 C11.33886719 53.56757812 11.33886719 48.61757813 11.33886719 43.51757812 C12.42304932 43.50299561 13.50723145 43.48841309 14.62426758 43.47338867 C18.67065383 43.41514341 22.71649878 43.33791342 26.76245117 43.25512695 C28.50910618 43.22200046 30.25586507 43.19393076 32.00268555 43.17114258 C34.52274589 43.13736931 37.04186471 43.08504465 39.56152344 43.02929688 C40.33472427 43.02290695 41.10792511 43.01651703 41.90455627 43.00993347 C46.97357409 42.8743868 50.81804709 42.03190292 55.33886719 39.51757812 C61.10883649 33.37230387 61.10883649 33.37230387 59.33886719 17.51757812 C41.51886719 17.18757812 23.69886719 16.85757813 5.33886719 16.51757812 C5.33886719 39.94757812 5.33886719 63.37757813 5.33886719 87.51757812 C0.05886719 87.51757812 -5.22113281 87.51757812 -10.66113281 87.51757812 C-10.75146878 76.76481877 -10.82486883 66.01231107 -10.8683815 55.25925827 C-10.88926444 50.26628278 -10.91759504 45.27358016 -10.96289062 40.28076172 C-11.00632309 35.46321172 -11.0302646 30.64592432 -11.04064178 25.82819366 C-11.04803783 23.98934036 -11.0624805 22.15050158 -11.08405304 20.31175995 C-11.11305283 17.73779643 -11.11709031 15.16492067 -11.11523438 12.59082031 C-11.12961548 11.82909012 -11.14399658 11.06735992 -11.15881348 10.282547 C-11.13282784 6.95617143 -10.88287844 4.85764351 -9.04907227 2.04534912 C-5.87897376 0.01716346 -3.75582507 0.01002078 0 0 Z " fill="#040404" transform="translate(712.6611328125,495.482421875)"/>
<path d="M0 0 C10.19289703 9.42897541 13.69818178 22.6792505 14.3984375 36.171875 C14.45087426 38.19758995 14.48871158 40.2237371 14.51171875 42.25 C14.53016846 43.2002002 14.54861816 44.15040039 14.56762695 45.12939453 C14.49764366 53.07700194 12.33152695 59.42273418 8.32421875 66.25 C3.16554475 70.99040314 -2.1031372 72.48060761 -8.98828125 72.375 C-8.99414749 71.77222733 -9.00001373 71.16945465 -9.00605774 70.54841614 C-9.07003135 64.27016909 -9.15446147 57.99243275 -9.25073242 51.71459961 C-9.28397031 49.37222022 -9.31200575 47.02976096 -9.3347168 44.68725586 C-9.36828293 41.31850167 -9.42060144 37.95047869 -9.4765625 34.58203125 C-9.48295242 33.53602249 -9.48934235 32.49001373 -9.4959259 31.41230774 C-9.56179795 24.36920969 -9.56179795 24.36920969 -12.98828125 18.375 C-22.02228945 12.17519045 -31.18516851 12.01125196 -41.86328125 12 C-43.07886719 11.97550781 -44.29445312 11.95101562 -45.546875 11.92578125 C-54.2021704 11.89777059 -62.53264213 12.74534788 -69.05078125 19 C-71.73090722 22.28531571 -72.11897182 23.94204606 -72.19360352 28.10009766 C-72.21354874 29.08096344 -72.23349396 30.06182922 -72.25404358 31.07241821 C-72.27911232 32.66465714 -72.27911232 32.66465714 -72.3046875 34.2890625 C-72.3254686 35.37383881 -72.34624969 36.45861511 -72.36766052 37.57626343 C-72.43318759 41.05077621 -72.49205572 44.52536624 -72.55078125 48 C-72.59396346 50.35157058 -72.63757765 52.70313326 -72.68164062 55.0546875 C-72.78887218 60.8280427 -72.89063269 66.6014752 -72.98828125 72.375 C-74.43689303 72.23405259 -75.88495676 72.08746447 -77.33276367 71.93847656 C-78.13920822 71.8574469 -78.94565277 71.77641724 -79.77653503 71.69293213 C-85.06291626 70.9330301 -88.8944429 67.55297976 -92.42578125 63.75 C-94.51917307 60.56804443 -95.11354769 58.06532902 -95.1652832 54.33764648 C-95.17811844 53.52927841 -95.19095367 52.72091034 -95.20417786 51.88804626 C-95.21525826 50.58027977 -95.21525826 50.58027977 -95.2265625 49.24609375 C-95.23867012 47.88968529 -95.23867012 47.88968529 -95.25102234 46.50587463 C-95.2648567 44.5884899 -95.27558176 42.67108061 -95.28344727 40.75366211 C-95.29492983 38.80534583 -95.31532213 36.85706007 -95.3449707 34.90893555 C-95.67479727 13.23435526 -95.67479727 13.23435526 -89.26953125 3.859375 C-67.9655058 -16.8840182 -22.90524898 -18.72020349 0 0 Z " fill="#030303" transform="translate(291.98828125,508.625)"/>
<path d="M0 0 C5.28 0 10.56 0 16 0 C16 11.55 16 23.1 16 35 C34.15 35 52.3 35 71 35 C71 23.45 71 11.9 71 0 C76.28 0 81.56 0 87 0 C87 28.71 87 57.42 87 87 C81.72 87 76.44 87 71 87 C71 75.12 71 63.24 71 51 C52.52 51 34.04 51 15 51 C15 62.88 15 74.76 15 87 C10.05 87 5.1 87 0 87 C0 58.29 0 29.58 0 0 Z " fill="#030303" transform="translate(562,496)"/>
<path d="M0 0 C0.73224792 -0.00073013 1.46449585 -0.00146027 2.21893311 -0.00221252 C4.62743488 0.00125737 7.03397691 0.04008567 9.44213867 0.0793457 C11.11650028 0.08867607 12.79087558 0.09579113 14.46525574 0.1007843 C18.86325038 0.11983679 23.26041386 0.16892173 27.65808105 0.2243042 C32.14913693 0.2755349 36.64032767 0.29830645 41.1315918 0.32348633 C49.93735349 0.37704315 58.74228117 0.46496396 67.54760742 0.56762695 C67.54760742 5.84762695 67.54760742 11.12762695 67.54760742 16.56762695 C46.42760742 16.56762695 25.30760742 16.56762695 3.54760742 16.56762695 C3.67135742 24.92075195 3.79510742 33.27387695 3.92260742 41.88012695 C3.95660645 44.51537354 3.99060547 47.15062012 4.02563477 49.86572266 C4.06083382 51.94996434 4.0967543 54.03419401 4.13354492 56.1184082 C4.15058472 57.74715881 4.15058472 57.74715881 4.16796875 59.40881348 C4.1980603 60.96142883 4.1980603 60.96142883 4.22875977 62.54541016 C4.24208344 63.44475784 4.2554071 64.34410553 4.26913452 65.27070618 C4.40602716 67.84332591 4.40602716 67.84332591 6.54760742 70.56762695 C9.21130864 71.04592437 9.21130864 71.04592437 12.37426758 71 C14.20593979 71.02969124 14.20593979 71.02969124 16.07461548 71.0599823 C17.4119654 71.06675256 18.74931699 71.07319937 20.08666992 71.0793457 C21.45146309 71.09618588 22.81624069 71.11433523 24.18099976 71.13374329 C27.77469008 71.18132199 31.3683173 71.21107993 34.96221924 71.23718262 C38.62882965 71.26694883 42.29522238 71.31349252 45.96166992 71.35864258 C53.15689334 71.4447652 60.35208449 71.51051963 67.54760742 71.56762695 C67.54760742 76.84762695 67.54760742 82.12762695 67.54760742 87.56762695 C59.50611968 87.68106924 51.46526508 87.77259378 43.42318916 87.82668781 C39.68798973 87.85266427 35.95337111 87.88783865 32.21850586 87.94482422 C28.60689551 87.99957765 24.99583999 88.02913712 21.38384628 88.04201317 C20.01322584 88.05117626 18.64263211 88.06906801 17.27225113 88.09627724 C8.66749303 88.26016598 1.69722635 87.71497663 -5.45239258 82.56762695 C-10.77329894 76.98058454 -12.68502439 70.77627581 -12.75878906 63.09082031 C-12.77477646 61.82608383 -12.79076385 60.56134735 -12.80723572 59.25828552 C-12.81361099 57.89135138 -12.81900418 56.52441236 -12.82348633 55.1574707 C-12.8324624 53.74312754 -12.84158441 52.3287853 -12.85084534 50.91444397 C-12.8672851 47.95823872 -12.87502699 45.0021461 -12.87792969 42.04589844 C-12.88332695 38.26384585 -12.92108155 34.48285449 -12.96667385 30.70110226 C-12.99644877 27.78337243 -13.00365321 24.86589901 -13.00465584 21.94803047 C-13.00885272 20.55377879 -13.02126598 19.15952596 -13.04217339 17.76542473 C-13.06910535 15.81547953 -13.06115253 13.86514761 -13.05175781 11.91503906 C-13.05682846 10.80728622 -13.06189911 9.69953339 -13.06712341 8.55821228 C-11.58522594 1.34897439 -6.65442796 -0.17505846 0 0 Z " fill="#060606" transform="translate(816.452392578125,495.432373046875)"/>
<path d="M0 0 C4.95 0 9.9 0 15 0 C15 28.71 15 57.42 15 87 C10.05 87 5.1 87 0 87 C0 58.29 0 29.58 0 0 Z " fill="#000000" transform="translate(668,496)"/>
<path d="M0 0 C0.74132675 -0.00570007 1.4826535 -0.01140015 2.2464447 -0.01727295 C3.81394031 -0.02669283 5.38145546 -0.03324492 6.94897461 -0.03710938 C9.30814829 -0.04674554 11.66642359 -0.07776736 14.02539062 -0.109375 C34.09726901 -0.25025816 34.09726901 -0.25025816 42.27734375 5.203125 C42.71484375 7.640625 42.71484375 7.640625 42.27734375 10.203125 C39.08877034 13.39169841 35.96525406 14.12852473 31.55645752 14.32337952 C30.5172113 14.32115891 29.47796509 14.31893829 28.40722656 14.31665039 C27.22630432 14.31657486 26.04538208 14.31649933 24.82867432 14.31642151 C23.55876648 14.31126022 22.28885864 14.30609894 20.98046875 14.30078125 C19.02460846 14.29865883 19.02460846 14.29865883 17.02923584 14.29649353 C13.5703132 14.29268367 10.11143284 14.28286651 6.65252686 14.27178955 C3.11991956 14.26154246 -0.41269461 14.25698885 -3.9453125 14.25195312 C-10.87111107 14.24124282 -17.79688163 14.22418484 -24.72265625 14.203125 C-23.96356211 9.32206805 -22.54130107 7.4277584 -18.72265625 4.203125 C-12.54199279 0.59773798 -7.04491508 0.04264164 0 0 Z " fill="#FCFCFC" transform="translate(361.72265625,515.796875)"/>
<path d="M0 0 C16.17 0 32.34 0 49 0 C49 4.95 49 9.9 49 15 C32.83 15 16.66 15 0 15 C0 10.05 0 5.1 0 0 Z " fill="#000000" transform="translate(827,532)"/>
</svg>
